<svg xmlns="http://www.w3.org/2000/svg" width="1280" height="720" viewBox="0 0 1280 720" role="img" aria-labelledby="title desc">
  <title id="title">UV plant sterilizer placeholder</title>
  <desc id="desc">A cyberpunk style placeholder illustration for an ultraviolet lamp timer project.</desc>
  <defs>
    <linearGradient id="bg" x1="0" y1="0" x2="1" y2="1">
      <stop offset="0" stop-color="#091017"/>
      <stop offset="1" stop-color="#12172a"/>
    </linearGradient>
    <radialGradient id="glow" cx="50%" cy="42%" r="45%">
      <stop offset="0" stop-color="#9b7bff" stop-opacity=".75"/>
      <stop offset=".45" stop-color="#57e3ff" stop-opacity=".22"/>
      <stop offset="1" stop-color="#57e3ff" stop-opacity="0"/>
    </radialGradient>
  </defs>
  <rect width="1280" height="720" fill="url(#bg)"/>
  <rect x="44" y="44" width="1192" height="632" rx="34" fill="none" stroke="#1f2a36" stroke-width="2"/>
  <circle cx="640" cy="300" r="300" fill="url(#glow)"/>
  <g fill="none" stroke="#57e3ff" stroke-opacity=".14" stroke-width="1">
    <path d="M120 150h1040M120 230h1040M120 310h1040M120 390h1040M120 470h1040M120 550h1040"/>
    <path d="M180 100v520M300 100v520M420 100v520M540 100v520M660 100v520M780 100v520M900 100v520M1020 100v520M1140 100v520"/>
  </g>
  <g transform="translate(390 166)">
    <rect x="96" y="330" width="320" height="54" rx="18" fill="#101720" stroke="#57e3ff" stroke-opacity=".45" stroke-width="3"/>
    <rect x="150" y="256" width="212" height="82" rx="20" fill="#101720" stroke="#9b7bff" stroke-opacity=".75" stroke-width="3"/>
    <text x="256" y="307" text-anchor="middle" font-family="JetBrains Mono, monospace" font-size="30" fill="#89ffb0">7999.8h</text>
    <path d="M210 256v-60c0-24 20-44 44-44h4c24 0 44 20 44 44v60" stroke="#57e3ff" stroke-width="10" stroke-linecap="round"/>
    <rect x="225" y="48" width="62" height="120" rx="30" fill="#d6e2f0" opacity=".95"/>
    <rect x="232" y="28" width="48" height="34" rx="10" fill="#b6c8da"/>
    <path d="M256 168v70" stroke="#9b7bff" stroke-width="8" stroke-linecap="round"/>
    <g stroke="#9b7bff" stroke-width="4" stroke-linecap="round" opacity=".8">
      <path d="M256 92l-96 50"/>
      <path d="M256 92l96 50"/>
      <path d="M256 92l-140 120"/>
      <path d="M256 92l140 120"/>
    </g>
    <g fill="#89ffb0">
      <path d="M80 384c32-94 84-94 116 0"/>
      <path d="M334 384c32-94 84-94 116 0"/>
      <ellipse cx="140" cy="314" rx="30" ry="14" transform="rotate(-28 140 314)"/>
      <ellipse cx="386" cy="314" rx="30" ry="14" transform="rotate(28 386 314)"/>
    </g>
  </g>
  <text x="92" y="612" font-family="JetBrains Mono, monospace" font-size="24" fill="#7f92a6">UV LAMP TIMER // ESP32-C3 // OLED 0.42</text>
</svg>
